<svg width="24" height="24" xmlns="http://www.w3.org/2000/svg" style="--darkreader-inline-stroke: currentColor;" fill="none" stroke="currentColor" stroke-width="2" stroke-linecap="round" stroke-linejoin="round" class="feather feather-star">
 <g>
  <title>Layer 1</title>
  <polygon points="12 2 15.09 8.26 22 9.27 17 14.14 18.18 21.02 12 17.77 5.82 21.02 7 14.14 2 9.27 8.91 8.26 12 2" id="svg_1"/>
  <path d="m4.68752,9.96875c-0.375,-0.125 -0.53819,-0.058 -0.6875,-0.1875c-0.10558,-0.09157 -0.13002,-0.27353 -0.375,-0.375c-0.05774,-0.02392 -0.03682,0.10577 0.25,0.3125c0.22675,0.16343 0.488,0.52342 1,0.6875c0.23807,0.07629 0.5006,-0.00867 0.5625,0c0.45061,0.06311 0.74225,0.20895 1.0625,0.3125c0.24519,0.07928 0.47411,0.09911 0.5625,0.1875c0.04419,0.04419 0.1222,0.15932 0.1875,0.375c0.07245,0.23927 0,0.4375 0.0625,0.5625c0.125,0.25 0.125,0.375 0.125,0.5c0,0.0625 0.1222,0.15932 0.1875,0.375c0.07245,0.23927 0,0.375 0,0.625c0,0.1875 0.1595,0.46392 0,0.5625c-0.11888,0.07347 -0.42314,-0.484 -0.75,-0.9375c-0.15504,-0.21511 -0.33021,-0.36288 -0.625,-0.8125c-0.19982,-0.30477 -0.20996,-0.34254 -0.3125,-0.4375c-0.26739,-0.24761 -0.30735,-0.33668 -0.375,-0.5c-0.02392,-0.05774 -0.03211,-0.05148 0,-0.1875c0.01436,-0.06083 -0.01399,0.07054 0.0625,0.1875c0.26718,0.40853 0.62341,0.81378 0.875,1.125c0.08786,0.10868 0.38901,0.30643 0.4375,0.4375c0.08941,0.24169 0.2113,0.40764 0.375,0.5625c0.22702,0.21475 0.23078,0.44912 0.3125,0.5625c0.05168,0.0717 0.00817,0.19555 0.0625,0.375c0.0653,0.21568 0.28817,0.44745 0.375,0.625c0.09901,0.20243 0.09163,0.37953 0.125,0.5c0.09728,0.35121 0.1875,0.375 0.1875,0.5c0,0.1875 0,0.25 0,0.5625c0,0.1875 0,0.375 0,0.5625c0,0.1875 -0.13294,0.24537 -0.3125,0.5625c-0.06159,0.10877 -0.33081,0.5183 -0.375,0.5625c-0.04419,0.04419 -0.11403,0.06862 -0.1875,0.1875c-0.03286,0.05317 -0.08868,0.15118 -0.1875,0.25c-0.09882,0.09882 -0.11499,0.18831 -0.125,0.25c-0.03166,0.19509 -0.15089,0.40089 -0.0625,0.3125c0.08839,-0.08839 0.04648,-0.19869 0.3125,-0.5625c0.23622,-0.32304 0.50485,-0.90987 0.75,-1.25c0.15504,-0.21511 0.26072,-0.5 0.4375,-0.5c0.08839,0 0.1875,0.0625 0.375,0.0625c0.3125,0 0.54732,0.06168 0.9375,0.125c0.30846,0.05006 0.5625,0 0.75,0c0.1875,0 0.375,0 0.4375,0c0.0625,0 0.25,0.125 0.25,0c0,-0.125 -0.20221,0.0231 -0.75,0.25c-0.12912,0.05348 -0.48275,0.38892 -0.6875,0.625c-0.11582,0.13355 -0.31331,0.11499 -0.375,0.125c-0.19509,0.03166 -0.3125,0.0625 -0.375,0.0625c-0.125,0 -0.24485,-0.03832 -0.3125,0.125c-0.02392,0.05774 -0.0625,0.0625 0,0c0.125,-0.125 0.44575,-0.35971 0.6875,-0.5c0.38981,-0.22621 0.75,-0.5625 1.125,-0.75c0.375,-0.1875 0.56343,-0.29723 0.6875,-0.3125c0.25576,-0.03149 0.62036,-0.2186 0.9375,-0.25c0.18659,-0.01848 0.375,-0.125 0.5625,-0.125c0.125,0 0.3125,-0.0625 0.375,-0.0625c0.1875,0 0.27444,0.04809 0.5,0.1875c0.16812,0.10391 0.25,0.0625 0.4375,0.25c0.1875,0.1875 0.4831,0.5768 0.75,0.875c0.17684,0.19758 0.31896,0.24414 0.375,0.3125c0.14287,0.17427 0.19939,0.2426 0.3125,0.4375c0.07015,0.12087 0.30492,0.05492 0.4375,0.1875c0.08839,0.08839 0.10584,0.15367 0.1875,0.1875c0.11548,0.04784 0.25,0 0.3125,0c0.125,0 -0.05958,-0.067 -0.25,-0.1875c-0.30795,-0.19488 -0.48718,-0.38876 -0.6875,-0.5625c-0.23608,-0.20475 -0.64103,-0.46368 -0.9375,-0.5625c-0.05929,-0.01976 -0.38933,-0.08325 -0.625,-0.1875c-0.20608,-0.09117 -0.3125,-0.125 -0.5,-0.125c-0.1875,0 -0.49414,-0.00646 -0.5625,-0.0625c-0.17427,-0.14287 -0.29334,-0.15368 -0.375,-0.1875c-0.11549,-0.04784 0.0625,0 0.1875,0c0.5,0 0.80798,-0.01448 1.1875,-0.125c0.24742,-0.07205 0.50242,-0.21997 0.6875,-0.25c0.19509,-0.03166 0.36952,-0.25191 0.4375,-0.4375c0.11577,-0.31604 0.1875,-0.375 0.1875,-0.5c0,-0.125 0.125,-0.1875 0.125,-0.3125c0,-0.0625 -0.01916,-0.28382 0.0625,-0.25c0.11549,0.04784 0.06876,0.2229 0.1875,0.625c0.16029,0.54279 0.25,0.75 0.25,0.875c0,0.25 0,0.4375 0,0.625c0,0.1875 0,0.3125 0,0.4375c0,0.0625 -0.10584,0.21618 -0.1875,0.25c-0.11549,0.04784 -0.28119,-0.24708 -0.3125,-0.75c-0.02719,-0.43666 0,-0.875 0,-1.1875c0,-0.25 0.03114,-0.37112 0.0625,-0.75c0.02062,-0.24915 0.15584,-0.49241 0.1875,-0.6875c0.03003,-0.18508 0.17579,-0.38792 0.3125,-0.5c0.17427,-0.14287 0.30537,-0.26734 0.5,-0.5625c0.18528,-0.28098 0.28039,-0.36398 0.3125,-0.5c0.01436,-0.06083 0.05153,-0.31862 0.125,-0.4375c0.06572,-0.10633 0,-0.25 0.0625,-0.3125c0.125,-0.125 0.11735,-0.19162 0.1875,-0.3125c0.11311,-0.1949 0.32245,-0.35066 0.5,-0.4375c0.20243,-0.09901 0.26942,-0.22093 0.375,-0.3125c0.14931,-0.1295 0.44362,-0.23903 0.5625,-0.3125c0.10633,-0.06572 0.16358,-0.00476 0.1875,-0.0625c0.06765,-0.16332 0.25612,-0.23903 0.375,-0.3125c0.10633,-0.06572 0.20989,-0.04955 0.1875,-0.1875c-0.01416,-0.08725 -0.18992,-0.09253 -0.375,-0.0625c-0.19509,0.03166 -0.36924,0.21851 -0.625,0.25c-0.31016,0.03818 -0.5674,0.11186 -0.75,0.1875c-0.25823,0.10696 -0.57054,0.13317 -0.75,0.1875c-0.21568,0.0653 -0.38247,0.17325 -0.75,0.375c-0.31946,0.17537 -0.56473,0.38404 -0.8125,0.75c-0.26685,0.39415 -0.34022,0.52379 -0.4375,0.875c-0.06673,0.24093 -0.09634,0.60642 -0.1875,0.8125c-0.10425,0.23566 -0.12418,0.54732 -0.1875,0.9375c-0.03003,0.18508 0,0.375 0,0.5c0,0.0625 -0.01922,-0.01163 0.0625,-0.125c0.20673,-0.28682 0.58505,-0.76344 0.75,-1.1875c0.15199,-0.39074 0.48213,-0.95073 0.625,-1.125c0.22415,-0.27342 0.36467,-0.63035 0.5625,-1c0.23776,-0.44427 0.40539,-0.61398 0.4375,-0.75c0.04308,-0.18248 0.02868,-0.29334 0.0625,-0.375c0.07175,-0.17323 0,-0.375 0,-0.5c0,-0.1875 -0.02628,-0.25536 -0.0625,-0.375c-0.0653,-0.21568 -0.15368,-0.23084 -0.1875,-0.3125c-0.02392,-0.05774 -0.125,-0.1875 -0.1875,-0.1875c-0.1875,0 -0.49067,0.13813 -0.75,0.3125c-0.30242,0.20335 -0.49414,0.38146 -0.5625,0.4375c-0.17427,0.14287 -0.375,0.25 -0.5,0.5c-0.0625,0.125 -0.0625,0.1875 -0.0625,0.3125c0,0.0625 -0.10179,0.29667 0.0625,0.5625c0.07347,0.11888 0.11064,0.18917 0.125,0.25c0.03211,0.13601 0.14132,0.15036 0.25,0.0625c0.31122,-0.25159 0.375,-0.5625 0.375,-0.8125c0,-0.375 -0.15745,-0.53489 -0.3125,-0.75c-0.16343,-0.22675 -0.24067,-0.38813 -0.5,-0.5625c-0.30242,-0.20335 -0.44362,-0.30153 -0.5625,-0.375c-0.10633,-0.06572 -0.1875,-0.0625 -0.25,-0.25c-0.0625,-0.1875 -0.04463,-0.32573 -0.1875,-0.5c-0.05604,-0.06835 -0.04463,-0.20073 -0.1875,-0.375c-0.05604,-0.06835 -0.20859,-0.39437 -0.3125,-0.5625c-0.04647,-0.07519 -0.08868,-0.15118 -0.1875,-0.25c-0.09882,-0.09882 -0.21834,-0.30491 -0.25,-0.5c-0.03003,-0.18508 -0.125,-0.375 -0.125,-0.4375c0,-0.125 -0.09456,-0.28712 -0.1875,-0.4375c-0.10391,-0.16812 -0.0625,-0.25 -0.0625,-0.375c0,-0.0625 -0.0808,-0.20581 -0.125,-0.25c-0.04419,-0.04419 -0.25,0 -0.5625,0.3125c-0.125,0.125 -0.30295,0.62758 -0.375,0.875c-0.11052,0.37952 -0.2472,0.53432 -0.3125,0.75c-0.05433,0.17945 -0.1222,0.47182 -0.1875,0.6875c-0.05433,0.17945 0.07008,0.42992 -0.0625,0.5625c-0.08839,0.08839 -0.10108,0.12976 -0.125,0.1875c-0.06765,0.16332 -0.19912,0.16828 -0.3125,0.25c-0.0717,0.05168 -0.26807,0.12804 -0.5625,0.25c-0.20819,0.08624 -0.38823,0.16963 -0.5625,0.3125c-0.13671,0.11207 -0.30491,0.15584 -0.5,0.1875c-0.18508,0.03003 -0.375,0 -0.5625,0c-0.1875,0 -0.375,0 -0.5,0c-0.0625,0 -0.1875,0 -0.3125,0.125c-0.0625,0.0625 -0.1875,0.0625 -0.25,0.0625c-0.125,0 -0.13966,0.00951 -0.1875,0.125c-0.10147,0.24498 -0.3125,0.25 -0.1875,0.25c0.1875,0 0.5625,0 1.125,0c1.125,0 1.77635,-0.13957 2.37499,-0.5c0.4606,-0.27732 0.57637,-0.48035 0.9375,-0.75c0.39113,-0.29205 0.40932,-0.4347 0.625,-0.5c0.11964,-0.03622 0.09911,-0.03661 0.1875,-0.125c0.08839,-0.08839 0.04308,0.03343 -0.0625,0.125c-0.29862,0.25899 -0.88964,0.26586 -1.8125,1c-0.55337,0.44021 -0.96617,1.02945 -1.0625,1.4375c-0.01436,0.06083 0,0.25 0,0.375c0,0.0625 0.02392,0.12976 0,0.1875c-0.03382,0.08166 -0.15118,0.14104 -0.25,0.4375c-0.03953,0.11859 0.03622,0.19286 0,0.3125c-0.0653,0.21568 -0.1875,0.3125 -0.1875,0.375c0,0.1875 -0.125,0.3125 -0.125,0.375c0,0.1875 0.0034,0.49866 0.125,0.8125c0.19292,0.49793 0.16161,0.72411 0.25,0.8125c0.08839,0.08839 0.07066,0.32054 0.125,0.5c0.0653,0.21568 0.15128,0.44286 0.1875,0.5625c0.0653,0.21568 0.125,0.25 0.125,0.375c0,0.0625 0.03858,0.19226 0.0625,0.25c0.06765,0.16332 0.09911,0.16161 0.1875,0.25c0.13258,0.13258 0.3125,0 0.3125,-0.125c0,-0.0625 -0.02972,-0.24137 -0.125,-0.625c-0.09164,-0.36896 -0.12462,-0.73972 -0.1875,-1.3125c-0.02046,-0.18638 -0.20495,-0.5554 -0.1875,-0.8125c0.02279,-0.3358 0.22558,-0.73734 0.3125,-1.0625c0.11413,-0.42695 0.0625,-0.75 0.0625,-1c0,-0.1875 -0.04308,-0.05748 0,0.125c0.03211,0.13601 0.08774,0.49651 0.1875,1.3125c0.08378,0.68523 0.18018,1.06714 0.5,1.5625c0.12223,0.18932 0.28817,0.32245 0.375,0.5c0.09901,0.20243 0.21368,0.33868 0.3125,0.4375c0.09882,0.09882 0.17314,0.25167 0.1875,0.3125c0.03211,0.13601 0.14442,0.22093 0.25,0.3125c0.14931,0.12949 0.3125,0.0625 0.5,0.0625c0.1875,0 0.35744,-0.08189 0.5625,-0.25c0.17427,-0.14287 0.29968,-0.38228 0.375,-0.5c0.21569,-0.3371 0.39859,-0.55191 0.5,-0.625c0.16033,-0.11556 0.03246,-0.50242 0.0625,-0.6875c0.06332,-0.39018 0.1875,-0.5625 0.1875,-0.8125c0,-0.1875 -0.14657,-0.76106 -0.25,-1.0625c-0.09071,-0.26438 -0.27572,-0.65025 -0.5,-0.9375c-0.16319,-0.209 -0.24435,-0.20675 -0.375,-0.4375c-0.12697,-0.22425 -0.25,-0.5 -0.375,-0.5c-0.1875,0 -0.25187,-0.09445 -0.5,-0.125c-0.25576,-0.03149 -0.56748,-0.0095 -0.8125,0.125c-0.31946,0.17537 -0.4062,0.4974 -0.4375,1.0625c-0.01037,0.18721 0.07119,0.45412 0.25,0.9375c0.09697,0.26215 0.2677,0.53545 0.375,0.625c0.23992,0.20023 0.52945,0.52867 0.9375,0.625c0.24331,0.05744 0.4552,0.02705 0.5625,-0.0625c0.23992,-0.20023 0.48835,-0.81286 0.5,-1c0.03131,-0.50292 0.11757,-0.88846 0,-1.25c-0.12965,-0.39871 -0.36144,-0.58789 -0.8125,-0.8125c-0.42608,-0.21217 -0.68575,-0.33896 -1,-0.125c-0.30124,0.2051 -0.3125,0.6875 -0.3125,1.1875c0,0.3125 -0.06598,0.71201 0.125,1.125c0.09459,0.20453 0.20371,0.43738 0.4375,0.5625c0.28098,0.15038 0.64261,0.16594 0.9375,0.0625c0.37763,-0.13247 0.4735,-0.61296 0.6875,-1.3125c0.07538,-0.24642 0.04044,-0.54641 0,-0.625c-0.17396,-0.33804 -0.24198,-0.74697 -1,-0.6875c-0.19704,0.01546 -0.58798,0.28164 -0.8125,1.0625c-0.10505,0.36537 -0.25,1.375 -0.25,1.9375c0,0.5 -0.03632,0.76603 0.0625,1.0625c0.09882,0.29646 0.29391,0.41022 0.625,0.5625c0.17956,0.08259 0.403,0.28607 0.5625,0.1875c0.11888,-0.07347 0.2683,-0.3933 0.3125,-0.4375c0.04419,-0.04419 0.03695,-0.25183 0,-0.625c-0.0314,-0.31714 -0.13744,-0.56653 -0.1875,-0.875c-0.09498,-0.58527 -0.2811,-0.74536 -0.3125,-1.0625c-0.00616,-0.06219 0,-0.1875 0,-0.25c0,-0.3125 0.02655,-0.6328 0.125,-1c0.13829,-0.51578 0.24918,-0.85982 0.3125,-1.25c0.03003,-0.18508 0.125,-0.6875 0.125,-1.0625c0,-0.1875 0,-0.4375 0,-0.5625c0,-0.0625 -0.07175,-0.11073 0,0.0625c0.10147,0.24498 0.17822,0.31974 0.375,0.5625c0.41836,0.51612 0.65099,0.79757 0.75,1c0.08683,0.17754 0.02933,0.39403 0.125,0.625c0.06765,0.16332 0.125,0.1875 0.125,0.3125c0,0.0625 -0.07898,-0.05409 -0.4375,-0.3125c-0.22675,-0.16343 -1.10563,-0.71657 -1.75,-1.125c-0.4256,-0.26976 -0.61548,-0.32716 -0.5,-0.375c0.08166,-0.03382 0.24563,-0.00078 0.75,-0.3125c0.22556,-0.13941 0.28876,-0.41681 0.375,-0.625c0.12196,-0.29443 -0.02818,-0.6278 0.1875,-0.5625c0.05982,0.01811 -0.03119,0.43458 -0.0625,0.9375c-0.0233,0.37427 0,0.75 0,1.125c0,0.25 0.06078,0.35297 0.125,0.625c0.02872,0.12166 0.03084,0.24241 0.0625,0.4375c0.01001,0.06169 0.125,0.0625 0.125,0.1875c0,0.0625 -0.03003,0.18992 0,0.375c0.03166,0.19509 0.1875,0.4375 0.1875,0.6875l0.1875,0.1875l0.0625,0.1875l0.125,0.0625" id="svg_3" stroke="#000" fill="none"/>
 </g>

</svg>